<?xml version="1.0" encoding="UTF-8"?>
<svg xmlns="http://www.w3.org/2000/svg" xmlns:xlink="http://www.w3.org/1999/xlink" width="100px" height="59px" viewBox="0 0 100 59" version="1.1">
<g id="surface1">
<path style=" stroke:none;fill-rule:nonzero;fill:rgb(0%,0%,0%);fill-opacity:1;" d="M 9.785156 14.265625 C 9.710938 19.265625 9.558594 25.367188 9.484375 27.816406 L 9.332031 32.28125 L 27.15625 34.78125 C 36.96875 36.1875 55.882812 38.839844 69.195312 40.726562 C 82.480469 42.617188 93.40625 44.148438 93.457031 44.148438 C 93.507812 44.148438 93.558594 38.355469 93.558594 31.261719 C 93.558594 24.167969 93.457031 18.375 93.355469 18.375 C 93.078125 18.375 10.902344 5.382812 10.371094 5.257812 C 9.988281 5.179688 9.9375 6.097656 9.785156 14.265625 Z M 13.820312 6.507812 C 15.085938 6.738281 20.839844 7.628906 26.621094 8.550781 C 32.402344 9.46875 40.390625 10.71875 44.371094 11.355469 C 51.320312 12.480469 69.09375 15.285156 85.089844 17.785156 L 92.722656 18.984375 L 92.902344 30.953125 C 93.003906 37.539062 93.003906 43.023438 92.875 43.128906 C 92.773438 43.230469 84.734375 42.183594 75.050781 40.804688 C 40.289062 35.855469 10.523438 31.644531 10.292969 31.644531 C 10.089844 31.644531 10.167969 26.769531 10.546875 11.917969 C 10.699219 6.8125 10.75 6.125 11.128906 6.125 C 11.359375 6.125 12.574219 6.304688 13.820312 6.507812 Z M 13.820312 6.507812 "/>
<path style=" stroke:none;fill-rule:nonzero;fill:rgb(0%,0%,0%);fill-opacity:1;" d="M 14.679688 11.585938 C 14.476562 13.421875 14.375 26.972656 14.554688 27.101562 C 14.832031 27.304688 19.726562 27.941406 19.878906 27.789062 C 19.953125 27.738281 20.03125 24.191406 20.082031 19.90625 L 20.15625 12.148438 L 17.445312 11.738281 C 15.542969 11.433594 14.707031 11.40625 14.679688 11.585938 Z M 14.679688 11.585938 "/>
<path style=" stroke:none;fill-rule:nonzero;fill:rgb(0%,0%,0%);fill-opacity:1;" d="M 23.351562 13.320312 C 23.226562 13.652344 22.566406 15.285156 21.855469 16.96875 L 20.613281 20.058594 L 22.058594 24.242188 L 23.503906 28.453125 L 26.269531 28.863281 C 27.789062 29.089844 29.058594 29.269531 29.082031 29.246094 C 29.109375 29.21875 28.449219 27.28125 27.613281 24.933594 C 26.800781 22.585938 26.117188 20.515625 26.117188 20.363281 C 26.117188 20.210938 26.75 18.65625 27.535156 16.917969 C 28.347656 15.183594 28.90625 13.703125 28.855469 13.628906 C 28.703125 13.5 24.519531 12.757812 23.882812 12.757812 C 23.707031 12.757812 23.480469 13.015625 23.351562 13.320312 Z M 23.351562 13.320312 "/>
<path style=" stroke:none;fill-rule:nonzero;fill:rgb(0%,0%,0%);fill-opacity:1;" d="M 33.542969 18.21875 C 32.046875 18.910156 31.769531 20.441406 32.910156 21.714844 C 33.492188 22.378906 33.875 22.558594 34.9375 22.660156 L 36.257812 22.789062 L 36.257812 21.410156 C 36.257812 20.644531 36.359375 19.90625 36.460938 19.75 C 36.789062 19.265625 37.449219 19.164062 38.007812 19.546875 C 38.464844 19.878906 38.539062 20.1875 38.539062 21.84375 L 38.539062 23.757812 L 37.144531 23.605469 C 34.886719 23.300781 32.988281 23.65625 32.148438 24.5 C 31.566406 25.109375 31.441406 25.441406 31.441406 26.539062 C 31.441406 28.300781 32.023438 29.21875 33.59375 29.984375 C 35.777344 31.03125 37.5 31.132812 38.414062 30.214844 C 38.792969 29.832031 38.871094 29.832031 39.375 30.316406 C 39.679688 30.597656 40.214844 30.953125 40.542969 31.132812 C 41.203125 31.492188 43.710938 31.617188 43.992188 31.335938 C 44.09375 31.234375 44.042969 30.800781 43.890625 30.34375 C 43.738281 29.882812 43.609375 27.867188 43.609375 25.722656 C 43.609375 21.4375 43.40625 20.59375 42.0625 19.597656 C 40.617188 18.527344 39.070312 18.066406 36.636719 17.941406 C 34.988281 17.890625 34.128906 17.964844 33.542969 18.21875 Z M 38.539062 26.515625 C 38.539062 28.402344 38.210938 29.347656 37.550781 29.347656 C 36.839844 29.347656 36.257812 28.378906 36.257812 27.179688 C 36.257812 25.824219 36.839844 25.007812 37.804688 25.007812 C 38.539062 25.007812 38.539062 25.007812 38.539062 26.515625 Z M 38.539062 26.515625 "/>
<path style=" stroke:none;fill-rule:nonzero;fill:rgb(0%,0%,0%);fill-opacity:1;" d="M 47.464844 24.933594 C 47.566406 30.316406 47.667969 30.851562 48.984375 32.078125 C 50.175781 33.199219 53.144531 33.328125 54.007812 32.28125 C 54.285156 31.925781 54.386719 31.949219 54.714844 32.433594 C 55.25 33.226562 56.566406 33.683594 58.214844 33.683594 C 59.585938 33.683594 59.636719 33.660156 59.433594 33.097656 C 59.332031 32.792969 59.203125 30.113281 59.152344 27.125 L 59.050781 21.714844 L 58.242188 21.5625 C 55.957031 21.179688 54.386719 20.976562 54.285156 21.078125 C 54.207031 21.15625 54.132812 23.222656 54.082031 25.722656 C 53.980469 30.980469 53.90625 31.386719 53.269531 31.386719 C 52.585938 31.386719 52.484375 30.75 52.484375 25.46875 L 52.484375 20.722656 L 50.660156 20.414062 C 49.644531 20.261719 48.480469 20.058594 48.097656 19.980469 L 47.363281 19.855469 Z M 47.464844 24.933594 "/>
<path style=" stroke:none;fill-rule:nonzero;fill:rgb(0%,0%,0%);fill-opacity:1;" d="M 76.976562 21.589844 C 76.902344 21.820312 76.824219 25.1875 76.824219 29.066406 L 76.824219 36.160156 L 78.804688 36.570312 C 82.632812 37.386719 84.304688 37.5625 85.851562 37.285156 C 87.652344 36.925781 88.4375 36.441406 88.894531 35.34375 C 89.757812 33.25 88.996094 30.828125 87.070312 29.601562 L 85.878906 28.863281 L 86.535156 28.605469 C 87.296875 28.300781 87.929688 27.433594 88.007812 26.539062 C 88.132812 24.933594 87.957031 24.394531 86.992188 23.476562 C 85.851562 22.378906 84.179688 21.84375 80.578125 21.460938 C 77.359375 21.105469 77.15625 21.105469 76.976562 21.589844 Z M 83.875 24.242188 C 84.382812 25.238281 84.128906 27.304688 83.417969 27.867188 C 82.453125 28.632812 82.277344 28.324219 82.199219 25.800781 L 82.125 23.453125 L 82.835938 23.527344 C 83.265625 23.578125 83.644531 23.835938 83.875 24.242188 Z M 83.164062 29.855469 C 83.417969 29.984375 83.746094 30.46875 83.898438 30.902344 C 84.203125 31.796875 84.28125 34.144531 84.027344 34.808594 C 83.824219 35.371094 83.039062 35.753906 82.554688 35.574219 C 82.226562 35.445312 82.148438 34.910156 82.148438 32.511719 C 82.148438 29.527344 82.226562 29.347656 83.164062 29.855469 Z M 83.164062 29.855469 "/>
<path style=" stroke:none;fill-rule:nonzero;fill:rgb(0%,0%,0%);fill-opacity:1;" d="M 64.859375 23.222656 C 63.566406 23.910156 62.90625 25.136719 62.703125 27.152344 C 62.273438 31.875 65.113281 35.421875 69.445312 35.546875 C 71.882812 35.625 73.277344 34.605469 73.277344 32.714844 C 73.277344 31.617188 72.820312 31.3125 72.058594 31.898438 C 71.375 32.460938 70.132812 32.5625 69.117188 32.152344 C 68.433594 31.898438 67.699219 30.726562 67.699219 29.910156 C 67.699219 29.449219 67.800781 29.421875 68.789062 29.652344 C 70.03125 29.933594 72.007812 29.78125 72.742188 29.296875 C 73.503906 28.835938 73.859375 27.714844 73.707031 26.335938 C 73.605469 25.367188 73.402344 24.984375 72.667969 24.34375 C 70.839844 22.761719 66.835938 22.175781 64.859375 23.222656 Z M 69.472656 24.726562 C 69.878906 25.519531 69.777344 27.179688 69.296875 27.765625 C 69.042969 28.046875 68.585938 28.351562 68.28125 28.453125 C 67.722656 28.605469 67.699219 28.554688 67.699219 27.074219 C 67.699219 26.234375 67.800781 25.265625 67.953125 24.90625 C 68.230469 24.117188 69.09375 24.011719 69.472656 24.726562 Z M 69.472656 24.726562 "/>
<path style=" stroke:none;fill-rule:nonzero;fill:rgb(0%,0%,0%);fill-opacity:1;" d="M 14.199219 38.152344 C 14.199219 38.355469 14.425781 38.535156 14.707031 38.535156 C 15.1875 38.535156 15.214844 38.710938 15.214844 40.957031 C 15.214844 42.949219 15.289062 43.382812 15.59375 43.382812 C 15.898438 43.382812 15.972656 42.949219 15.972656 41.085938 C 15.972656 38.8125 15.972656 38.789062 16.609375 38.789062 C 17.597656 38.789062 17.367188 38.328125 16.304688 38.152344 C 15.769531 38.074219 15.085938 37.945312 14.78125 37.871094 C 14.375 37.792969 14.199219 37.871094 14.199219 38.152344 Z M 14.199219 38.152344 "/>
<path style=" stroke:none;fill-rule:nonzero;fill:rgb(0%,0%,0%);fill-opacity:1;" d="M 38.945312 43.179688 C 37.855469 44.710938 39.171875 47.390625 40.695312 46.800781 C 41.40625 46.519531 41.125 46.011719 40.3125 46.136719 C 39.882812 46.1875 39.554688 46.136719 39.554688 45.984375 C 39.554688 45.832031 39.476562 45.550781 39.402344 45.320312 C 39.273438 45.015625 39.425781 44.914062 39.984375 44.914062 C 40.847656 44.914062 41.328125 44.503906 41.328125 43.765625 C 41.328125 42.566406 39.65625 42.15625 38.945312 43.179688 Z M 40.441406 43.664062 C 40.441406 44.097656 40.289062 44.300781 39.882812 44.351562 C 39.25 44.453125 39.148438 44.121094 39.578125 43.355469 C 39.933594 42.691406 40.441406 42.871094 40.441406 43.664062 Z M 40.441406 43.664062 "/>
<path style=" stroke:none;fill-rule:nonzero;fill:rgb(0%,0%,0%);fill-opacity:1;" d="M 63.132812 46.417969 C 62.726562 47.183594 62.828125 49.148438 63.285156 49.609375 C 63.769531 50.121094 65.0625 50.144531 65.238281 49.660156 C 65.339844 49.40625 65.164062 49.328125 64.578125 49.355469 L 63.769531 49.378906 L 63.769531 47.875 C 63.769531 46.851562 63.871094 46.316406 64.097656 46.242188 C 64.273438 46.1875 64.503906 46.367188 64.578125 46.675781 C 64.730469 47.261719 65.414062 47.414062 65.414062 46.878906 C 65.414062 45.910156 63.617188 45.550781 63.132812 46.417969 Z M 63.132812 46.417969 "/>
<path style=" stroke:none;fill-rule:nonzero;fill:rgb(0%,0%,0%);fill-opacity:1;" d="M 86.636719 47.644531 C 86.535156 47.71875 86.460938 48.996094 86.460938 50.449219 C 86.460938 52.621094 86.535156 53.078125 86.839844 53.078125 C 87.144531 53.078125 87.222656 52.722656 87.222656 51.421875 C 87.222656 49.964844 87.273438 49.761719 87.703125 49.761719 C 88.261719 49.761719 88.488281 50.425781 88.488281 52.109375 C 88.488281 52.925781 88.589844 53.335938 88.820312 53.335938 C 89.019531 53.335938 89.097656 52.902344 89.046875 51.878906 C 88.917969 49.378906 88.84375 49.175781 87.878906 49.304688 C 87.042969 49.40625 87.019531 49.40625 87.171875 48.433594 C 87.273438 47.542969 87.042969 47.210938 86.636719 47.644531 Z M 86.636719 47.644531 "/>
</g>
</svg>
