<?xml version="1.0" standalone="no"?>
<!DOCTYPE svg PUBLIC "-//W3C//DTD SVG 20010904//EN"
 "http://www.w3.org/TR/2001/REC-SVG-20010904/DTD/svg10.dtd">
<svg version="1.0" xmlns="http://www.w3.org/2000/svg"
 width="944.000000pt" height="804.000000pt" viewBox="0 0 944.000000 804.000000"
 preserveAspectRatio="xMidYMid meet">

<g transform="translate(0.000000,804.000000) scale(0.100000,-0.100000)"
fill="#000000" stroke="none">
<path d="M1882 7758 c2 -299 6 -270 10 75 2 114 0 207 -4 207 -5 0 -7 -127 -6
-282z"/>
<path d="M3331 8010 c-26 -22 -41 -28 -58 -23 -19 4 -25 1 -30 -15 -3 -12 -13
-24 -23 -27 -10 -3 -21 -12 -24 -20 -3 -10 -20 -15 -46 -15 -22 0 -40 -4 -40
-10 0 -5 -18 -14 -40 -20 -28 -8 -40 -16 -40 -29 0 -26 -67 -84 -118 -100 -35
-12 -46 -22 -62 -57 -12 -30 -27 -45 -43 -49 -14 -4 -41 -23 -60 -43 -19 -21
-51 -52 -71 -71 -20 -19 -36 -40 -36 -47 0 -7 -10 -30 -22 -51 -12 -21 -25
-63 -29 -93 -8 -59 -33 -152 -49 -185 -15 -30 -40 -257 -33 -299 3 -21 0 -55
-7 -77 -18 -52 6 -325 51 -584 19 -109 30 -132 70 -151 47 -21 102 -96 121
-164 3 -14 6 74 7 195 0 121 4 262 10 313 5 51 7 116 5 145 -3 29 -4 84 -3
122 3 84 3 131 0 165 -2 38 15 144 28 168 6 12 20 26 31 32 23 12 26 27 6 32
-18 4 41 94 92 141 79 73 92 87 92 102 0 8 7 15 16 15 8 0 12 -4 9 -10 -3 -5
1 -10 9 -10 9 0 16 4 16 9 0 16 70 51 102 51 16 0 42 6 56 14 15 7 45 23 67
34 22 11 42 29 44 39 5 28 16 31 134 32 61 1 113 4 116 9 23 31 169 52 234 32
23 -6 50 -16 59 -21 21 -10 162 -14 177 -4 13 7 184 26 238 25 18 0 62 -14 99
-31 38 -18 93 -35 132 -39 37 -5 68 -13 70 -19 2 -6 12 -11 22 -11 10 0 22 -4
25 -10 3 -5 14 -10 25 -10 10 0 20 -7 24 -15 3 -9 18 -15 40 -15 28 0 44 -9
85 -49 27 -27 60 -51 73 -54 27 -7 78 -73 97 -127 7 -19 21 -53 31 -75 10 -22
23 -62 30 -90 7 -27 20 -72 30 -100 10 -27 23 -79 29 -115 12 -75 122 -514
145 -580 9 -25 16 -57 16 -72 0 -15 5 -30 10 -33 7 -4 8 12 4 48 -5 41 -3 60
10 79 9 13 13 28 9 33 -5 4 -3 5 4 1 10 -5 73 47 73 60 0 11 -18 1 -42 -21
-24 -22 -58 -34 -58 -19 0 3 5 26 12 51 8 35 8 96 -1 252 -13 230 -32 364 -66
461 -13 36 -33 92 -44 125 -12 33 -26 74 -32 90 -6 17 -18 52 -26 79 -17 54
-74 157 -108 196 -12 14 -32 43 -46 65 -13 22 -29 46 -35 53 -7 6 -16 21 -19
32 -3 11 -10 20 -15 20 -4 0 -30 19 -56 43 -68 60 -134 103 -169 110 -16 3
-63 24 -103 46 -40 22 -83 43 -95 46 -12 3 -56 20 -97 37 -41 17 -91 37 -110
45 -19 8 -44 19 -55 26 -15 9 -132 13 -430 14 l-410 3 -34 -30z m41 -485 c-6
-34 -12 -32 -12 6 0 16 4 28 9 25 4 -3 6 -17 3 -31z"/>
<path d="M6397 7598 c-10 -244 -22 -526 -27 -628 -9 -165 -21 -520 -35 -1010
-3 -91 -10 -232 -15 -315 -6 -82 -10 -166 -9 -185 2 -19 -3 -152 -10 -295 -6
-143 -13 -344 -14 -447 -2 -213 -1 -210 -80 -164 -23 14 -69 35 -101 47 -56
20 -65 21 -140 9 l-81 -12 -92 46 c-51 25 -145 62 -208 81 -130 39 -134 40
-117 23 20 -20 14 -29 -15 -22 l-28 7 19 -22 c11 -12 26 -19 35 -16 9 2 21 1
26 -3 25 -17 64 -82 75 -122 14 -53 7 -60 -70 -60 -53 0 -58 2 -97 43 -76 78
-112 147 -78 147 8 0 15 -3 15 -7 0 -5 24 -33 53 -64 48 -52 55 -56 90 -52 40
6 48 18 18 28 -19 6 -193 176 -199 195 -2 6 5 10 15 10 17 1 17 2 -2 16 -57
42 -57 43 -50 97 4 29 16 71 27 95 16 35 18 48 10 67 -9 19 -8 33 4 60 8 20
10 35 4 35 -15 0 -12 26 5 40 20 17 20 111 0 236 -14 87 -14 103 0 165 17 79
18 82 7 75 -5 -3 -7 21 -5 52 4 70 -17 239 -31 251 -8 7 -10 -56 -8 -212 2
-121 1 -240 -3 -264 -6 -40 -9 -43 -33 -41 -24 3 -27 -1 -30 -30 -4 -35 -75
-117 -108 -124 -25 -4 -30 -28 -7 -34 15 -4 19 -14 19 -44 -1 -21 -4 -42 -8
-46 -5 -4 -8 4 -8 18 0 21 -4 25 -20 21 -33 -9 -46 -31 -31 -55 11 -18 10 -25
-9 -50 -22 -30 -21 -58 3 -58 21 0 53 65 40 82 -9 10 -5 13 18 15 28 2 37 -6
22 -21 -5 -4 -8 -15 -9 -24 -1 -10 -2 -29 -3 -44 0 -16 -7 -28 -14 -28 -27 0
-47 -41 -53 -110 -5 -47 -12 -75 -24 -85 -16 -14 -18 -14 -24 1 -4 10 -2 22 4
28 15 15 12 46 -5 53 -23 8 -53 -24 -57 -61 l-3 -31 -17 38 c-11 23 -15 49
-11 67 7 36 -12 63 -38 55 -15 -5 -19 -1 -19 19 0 30 7 32 30 11 25 -23 74 -3
65 25 -5 16 -2 20 17 18 17 -2 24 3 26 20 2 15 -2 22 -13 22 -29 0 -48 28 -40
58 4 15 6 51 5 80 0 33 5 63 14 77 14 21 13 24 -14 50 -17 16 -32 37 -35 46
-14 43 -182 145 -204 123 -7 -6 69 -73 84 -74 6 0 16 -9 23 -20 10 -17 10 -20
-3 -20 -8 0 -15 7 -15 15 0 10 -9 15 -27 13 -16 -1 -43 6 -60 15 -18 10 -53
20 -78 24 -35 4 -45 10 -45 24 0 14 -7 19 -28 19 -36 0 -105 60 -96 84 4 12 0
16 -15 16 -12 0 -31 9 -42 19 -23 21 -84 32 -114 20 -27 -11 -85 -64 -85 -78
0 -8 13 -10 38 -6 20 3 30 2 22 -2 -43 -18 -84 -64 -84 -93 -1 -40 -18 -40
-32 1 -6 18 -19 38 -29 44 -24 13 -75 66 -75 76 0 5 9 9 20 9 27 0 25 14 -5
34 -42 28 -90 21 -129 -19 -19 -19 -36 -44 -38 -56 -2 -16 -16 -26 -53 -38
-27 -9 -50 -20 -50 -26 0 -16 -28 -51 -47 -58 -10 -3 -18 -2 -18 3 0 6 -7 10
-15 10 -8 0 -15 -5 -15 -10 0 -6 -12 -10 -27 -10 -16 1 -37 0 -48 -2 -16 -2
-19 2 -17 20 2 15 -2 22 -13 22 -8 0 -24 5 -34 12 -16 10 -27 4 -80 -43 -34
-30 -57 -55 -51 -57 5 -2 10 -8 10 -14 0 -5 -9 -6 -20 -3 -15 5 -20 2 -20 -13
0 -15 -5 -19 -20 -15 -16 4 -20 0 -20 -18 0 -12 -6 -30 -13 -38 -34 -41 -42
-126 -19 -184 7 -16 12 -32 12 -36 0 -17 33 -73 46 -78 17 -6 18 -45 2 -62 -7
-7 -8 -12 -3 -11 42 8 54 -25 21 -59 -29 -32 -21 -71 16 -71 25 0 58 52 38 58
-5 2 -10 13 -10 24 0 14 5 18 16 14 9 -3 18 -6 20 -6 2 0 4 -15 4 -33 0 -37
-15 -55 -69 -81 -43 -20 -44 -20 -36 5 5 16 3 20 -6 17 -8 -3 -14 -16 -15 -29
0 -13 -4 -31 -8 -41 -12 -26 -3 -73 14 -73 8 0 15 9 15 19 0 11 6 21 13 23 19
7 14 -21 -8 -47 -11 -13 -20 -26 -20 -30 0 -8 -46 -30 -62 -30 -7 0 -6 5 2 15
7 8 9 22 6 31 -5 13 -15 15 -43 11 -26 -5 -42 -2 -54 9 -14 13 -18 13 -29 -1
-16 -19 -34 -20 -27 -1 3 8 1 17 -6 19 -8 3 -4 11 11 22 20 14 33 53 14 41 -4
-2 -14 -1 -21 4 -19 11 -6 40 19 40 28 0 25 24 -5 44 -31 21 -32 21 -51 -9
-15 -23 -15 -27 -1 -43 29 -33 30 -65 3 -91 -23 -22 -28 -23 -51 -11 -24 13
-37 36 -40 72 -2 21 -15 37 -15 19 0 -7 -4 -10 -9 -6 -13 7 -42 67 -36 73 9
10 36 -9 44 -30 l8 -23 8 24 c5 17 3 26 -9 33 -9 5 -16 14 -16 19 0 6 4 8 9 5
9 -6 24 105 15 113 -7 8 -24 -20 -30 -49 -5 -23 -10 -25 -39 -22 -27 3 -37 11
-50 38 -9 19 -14 38 -11 43 3 5 -1 22 -10 39 -9 20 -13 47 -10 72 3 30 0 43
-10 47 -16 6 -20 83 -4 83 15 0 12 28 -6 55 -9 14 -19 62 -24 117 -4 51 -14
107 -20 123 -19 47 -60 198 -60 220 0 13 -13 27 -35 39 -35 19 -36 19 -50 0
-21 -28 -18 -39 12 -59 26 -18 27 -18 6 -26 -15 -6 -20 -14 -16 -28 8 -30 23
-26 36 9 17 46 45 40 45 -10 0 -22 9 -73 20 -112 11 -40 20 -80 20 -88 0 -8 4
-32 8 -53 4 -25 2 -47 -7 -63 -10 -20 -11 -31 0 -57 7 -18 14 -62 16 -98 2
-37 10 -81 19 -98 9 -17 18 -56 20 -85 2 -50 34 -126 53 -126 12 0 13 -73 1
-87 -10 -12 -1 -18 23 -15 4 1 10 -10 13 -23 4 -14 11 -25 16 -25 6 0 10 -7
10 -16 0 -39 24 -94 41 -94 10 0 21 -12 27 -27 5 -16 18 -37 28 -48 11 -11 27
-37 37 -57 11 -19 32 -50 49 -68 23 -25 28 -39 23 -59 l-6 -26 19 28 20 29 16
-23 c9 -13 16 -28 16 -33 0 -5 8 -15 17 -22 13 -10 14 -13 4 -14 -26 0 11 -31
73 -59 34 -16 72 -41 86 -56 26 -28 66 -50 86 -46 7 1 14 -5 18 -14 3 -8 15
-15 26 -15 24 0 101 -41 132 -70 12 -11 31 -21 42 -22 12 -1 28 -2 36 -3 8 0
21 -4 28 -9 7 -4 23 -9 35 -11 52 -6 98 -18 103 -26 3 -5 25 -9 49 -9 24 0 47
-5 50 -10 3 -6 25 -10 48 -10 56 -1 136 -23 149 -41 7 -11 11 -11 15 -1 6 16
27 16 20 0 -3 -8 5 -14 19 -14 13 -1 24 3 24 10 0 6 4 5 9 -3 8 -13 14 -13 38
-2 15 8 39 15 52 17 14 1 34 7 45 12 60 27 74 30 86 19 10 -9 12 -8 7 4 -4 14
1 17 28 16 22 -1 43 7 57 19 16 14 34 20 56 17 17 -1 32 2 32 7 0 6 -5 10 -11
10 -5 0 -8 4 -4 10 3 5 12 7 20 4 8 -3 25 6 38 20 13 14 30 26 36 26 7 0 9 5
6 10 -7 12 62 80 81 80 15 0 164 143 164 158 0 11 79 36 88 28 3 -4 1 -11 -6
-18 -8 -8 -8 -17 -1 -30 12 -22 -4 -208 -22 -264 -5 -17 -12 -42 -14 -55 -17
-87 -73 -288 -85 -304 -5 -5 -10 -24 -13 -40 -2 -17 -14 -52 -26 -77 -11 -26
-21 -57 -21 -69 0 -12 -8 -36 -18 -53 -10 -17 -27 -58 -38 -91 -10 -33 -22
-62 -25 -65 -4 -3 -10 -16 -14 -30 -4 -14 -17 -36 -30 -50 -33 -36 -85 -111
-85 -122 0 -5 12 4 26 21 14 17 54 44 88 60 66 32 94 69 103 141 3 19 11 49
19 65 7 17 22 57 33 90 l20 60 1 -160 c0 -88 5 -178 10 -200 25 -102 2 -312
-39 -359 -24 -27 -66 -46 -104 -46 -54 0 -275 -94 -387 -165 -38 -24 -158
-176 -198 -250 -34 -64 -84 -225 -89 -290 -7 -83 25 -386 59 -550 5 -28 8 -61
7 -75 -5 -28 -45 91 -109 320 -23 80 -47 165 -55 190 -7 25 -16 63 -20 85 -20
115 -107 380 -160 484 -23 46 -32 81 -20 81 2 0 21 -9 42 -19 44 -22 114 -33
134 -21 22 14 -35 62 -95 81 -43 13 -66 14 -120 6 -88 -12 -144 -3 -200 34
-38 25 -45 35 -40 54 4 15 -10 48 -45 111 -29 50 -64 131 -82 188 -17 56 -37
119 -45 140 -20 58 -10 55 30 -7 20 -30 54 -76 76 -102 22 -25 40 -50 40 -56
0 -5 6 -9 14 -9 9 0 12 -7 9 -20 -4 -13 0 -20 9 -20 8 0 29 -16 48 -35 22 -22
43 -35 59 -35 24 1 25 2 9 14 -22 16 -62 74 -101 146 -17 30 -33 57 -36 60
-10 8 -51 69 -51 75 0 3 -47 76 -103 163 -138 209 -151 230 -208 336 -108 198
-182 386 -214 541 -22 107 -47 303 -43 340 1 19 0 37 -3 40 -8 8 -53 -98 -70
-164 -11 -42 -20 -58 -42 -70 -16 -9 -70 -44 -121 -77 -51 -34 -182 -107 -292
-162 -258 -130 -414 -218 -561 -316 -65 -44 -149 -100 -188 -126 -66 -44 -205
-126 -340 -200 -33 -18 -82 -47 -110 -65 -27 -18 -79 -49 -115 -71 -71 -42
-286 -250 -382 -369 -178 -223 -318 -552 -382 -900 -9 -49 -21 -110 -27 -135
-20 -92 -31 -307 -39 -735 -4 -242 -11 -454 -15 -471 -13 -59 17 -70 280 -105
164 -22 667 -44 781 -35 39 3 74 3 77 0 3 -3 42 -6 86 -6 97 -1 123 -13 44
-21 -32 -3 -69 -8 -83 -11 -13 -3 -27 0 -31 6 -6 9 -14 9 -35 -2 -22 -12 -81
-15 -328 -13 -166 1 -355 7 -421 13 -155 15 -313 38 -345 50 -14 5 -44 14 -68
20 -23 6 -40 15 -37 21 4 5 -1 12 -11 16 -24 9 -44 -23 -44 -71 0 -36 6 -46
57 -93 l57 -53 -12 -76 c-7 -42 -10 -80 -7 -84 17 -28 237 -82 405 -101 352
-39 897 -40 1313 -3 l77 7 0 -32 c0 -17 5 -31 11 -31 14 0 1 -82 -14 -92 -7
-4 -7 -11 2 -22 7 -8 10 -20 6 -26 -4 -7 350 -10 1152 -10 l1158 0 -4 47 c-2
32 -10 52 -24 64 -16 13 -19 20 -10 30 6 8 14 41 18 74 3 33 14 71 23 85 9 14
22 60 27 103 14 110 31 94 26 -26 -2 -67 0 -97 8 -97 6 0 11 12 11 26 0 14 4
23 10 19 6 -3 10 -16 10 -29 0 -12 5 -27 10 -32 11 -11 16 -121 6 -131 -3 -4
-6 5 -6 18 0 25 -25 69 -39 69 -5 0 -7 -33 -6 -72 3 -98 -4 -138 -21 -131 -8
3 -14 0 -14 -6 0 -8 422 -11 1543 -11 l1543 0 -3 58 c-4 68 -31 219 -43 243
-5 9 -20 19 -32 21 -13 2 -78 37 -146 77 -124 73 -185 127 -298 257 -99 115
-113 192 -47 265 l37 41 -42 84 c-58 117 -58 196 -1 259 18 21 18 22 -21 95
-43 82 -47 112 -25 186 16 56 40 82 103 113 l42 21 -27 42 c-23 34 -28 53 -28
102 0 96 24 132 120 181 97 48 117 48 256 0 57 -20 125 -42 152 -50 26 -7 63
-23 83 -34 19 -11 45 -20 57 -19 12 1 49 -13 81 -30 32 -18 64 -32 71 -32 13
0 70 61 96 105 13 20 19 49 19 85 0 61 -14 85 -133 226 -109 130 -142 230
-135 413 4 107 7 123 42 202 53 122 107 169 194 169 43 0 55 -6 71 -39 10 -18
10 -47 0 -141 -17 -163 -17 -165 135 -361 98 -127 160 -191 230 -239 94 -63
108 -80 153 -180 21 -47 63 -132 94 -190 31 -58 76 -143 100 -189 24 -46 59
-98 78 -117 41 -39 142 -94 174 -94 19 0 18 2 -8 16 -16 8 -31 17 -33 19 -2 2
23 37 55 77 123 151 307 449 441 715 l82 162 0 354 0 353 -35 17 c-21 10 -42
31 -52 52 -17 35 -93 85 -130 85 -10 0 -43 15 -73 33 -30 18 -93 53 -140 76
-47 24 -119 65 -160 91 -179 111 -572 321 -731 389 -208 89 -385 131 -632 153
-142 12 -148 13 -141 33 3 11 8 37 11 57 7 51 -25 83 -159 159 -24 14 -53 16
-201 12 -155 -5 -178 -3 -232 15 -33 11 -102 25 -153 31 -50 5 -117 16 -148
23 l-55 13 6 170 c3 93 10 267 15 385 6 118 14 323 20 455 16 385 30 696 40
905 10 191 30 666 50 1190 5 146 12 311 16 368 l6 102 -74 0 -74 0 -17 -442z
m-2142 -2202 c67 -3 118 -23 94 -37 -8 -4 -28 -6 -44 -4 -41 5 -65 -3 -65 -22
0 -9 -6 -13 -14 -10 -17 7 -42 -18 -28 -27 5 -3 24 -1 43 4 41 12 39 12 39 1
0 -5 -8 -18 -17 -27 -17 -17 -17 -18 1 -11 24 10 256 -13 274 -26 6 -5 13 -19
13 -31 1 -17 2 -17 6 -3 6 22 8 22 49 -10 27 -23 34 -35 34 -63 0 -19 -4 -39
-8 -45 -15 -21 -53 -35 -77 -29 -19 5 -25 2 -25 -10 0 -9 4 -16 10 -16 5 0 7
-7 4 -15 -5 -11 1 -15 20 -15 14 0 26 -4 26 -9 0 -17 39 -19 55 -2 9 9 30 38
47 64 31 49 53 66 66 53 10 -11 2 -169 -9 -183 -8 -8 -6 -19 5 -34 9 -13 13
-32 10 -45 -3 -12 -1 -25 5 -28 15 -10 14 -26 -3 -26 -25 0 -41 -29 -28 -51 7
-10 12 -32 12 -48 0 -26 -3 -28 -37 -27 -34 1 -38 -2 -39 -24 0 -14 8 -32 19
-41 20 -16 20 -17 -21 -38 -47 -24 -82 -27 -82 -8 0 24 -36 83 -48 79 -13 -4
-16 10 -5 22 12 11 28 89 25 114 -4 23 -5 24 -75 16 -76 -8 -118 -8 -154 1
-12 3 -28 -1 -37 -10 -8 -8 -21 -12 -29 -9 -8 3 -18 1 -22 -5 -7 -13 -52 -15
-59 -2 -8 13 -148 1 -173 -15 -12 -8 -29 -11 -37 -8 -12 5 -16 0 -16 -19 0
-14 3 -32 6 -41 5 -14 8 -14 22 1 16 16 17 15 20 -6 3 -17 9 -22 23 -18 12 3
19 0 19 -10 0 -11 9 -13 44 -8 34 6 44 4 49 -9 4 -9 13 -16 21 -16 12 0 13 -5
4 -32 l-11 -31 -19 23 c-18 22 -19 22 -38 5 -26 -24 -25 -34 5 -45 15 -6 25
-17 25 -30 0 -11 4 -20 9 -20 5 0 5 -15 1 -35 -4 -19 -4 -37 0 -40 14 -9 32
24 29 53 -2 16 1 36 7 43 10 12 27 58 41 108 2 9 14 12 38 9 19 -2 35 -1 35 3
0 3 22 9 48 12 26 3 54 7 62 9 9 2 15 -4 14 -13 -1 -11 5 -15 16 -12 9 2 22
-3 29 -11 19 -23 40 -20 34 4 -4 14 0 20 11 20 9 0 16 -7 16 -15 0 -8 6 -15
13 -15 9 0 8 -3 -2 -9 -10 -6 -10 -13 -2 -28 8 -15 7 -25 -4 -39 -8 -11 -15
-29 -15 -41 0 -23 -23 -32 -35 -13 -13 20 -45 10 -60 -21 -20 -37 -74 -94 -98
-102 -11 -4 -20 -1 -23 8 -4 10 -12 11 -29 5 -13 -5 -26 -5 -31 0 -12 12 -73
15 -101 6 -18 -6 -23 -3 -23 9 0 9 -6 15 -12 13 -20 -7 -39 -50 -35 -80 3 -22
-1 -28 -15 -28 -10 0 -18 6 -18 13 0 14 -27 31 -67 42 -12 3 -25 15 -28 26 -8
24 -17 18 -19 -11 -2 -37 -21 -26 -26 15 -8 61 -30 86 -73 83 -21 -2 -37 -8
-37 -14 0 -15 71 -52 88 -47 14 5 17 -13 2 -22 -5 -3 -7 -12 -3 -20 7 -19 1
-19 -45 2 -20 9 -46 17 -57 17 -11 1 -24 11 -30 23 -6 15 -18 21 -36 21 -24
-1 -27 -5 -27 -30 1 -15 -1 -31 -4 -33 -11 -11 -38 8 -38 27 0 13 -5 18 -13
15 -7 -3 -19 4 -25 14 -7 10 -15 18 -20 17 -15 -3 -42 15 -42 28 0 8 -7 14
-15 14 -8 0 -15 5 -15 11 0 7 10 9 25 7 23 -5 25 -2 25 31 0 21 5 42 11 48 6
6 8 16 4 23 -4 7 -14 3 -29 -13 -18 -20 -37 -26 -88 -31 -63 -6 -65 -5 -77 20
-10 22 -9 31 4 51 19 28 44 40 54 26 11 -17 43 -24 57 -12 10 8 22 8 45 0 17
-6 36 -8 43 -4 15 10 -28 21 -86 22 -27 1 -48 6 -48 11 0 6 5 10 10 10 6 0 10
6 10 14 0 17 39 48 52 40 4 -3 8 0 8 5 0 6 -9 11 -19 11 -11 0 -23 5 -26 10
-3 6 -1 10 5 10 6 0 9 8 6 18 -4 12 2 21 24 30 16 7 32 23 36 35 9 28 8 73 -3
89 -4 7 -8 41 -8 76 0 52 -4 67 -21 80 -12 9 -26 32 -32 50 -10 30 -10 32 13
32 15 0 31 -10 40 -24 9 -13 37 -31 63 -41 26 -10 51 -22 57 -26 23 -22 32 -8
31 49 -1 53 1 57 21 56 12 0 20 3 17 8 -9 14 21 36 72 52 27 8 42 15 33 15 -9
1 -22 8 -29 16 -8 9 -21 13 -36 9 -19 -5 -23 -3 -18 10 3 9 1 16 -5 16 -6 0
-11 4 -11 9 0 4 12 6 27 3 25 -5 26 -3 20 28 -7 31 -6 32 20 25 15 -3 39 -15
55 -26 17 -13 36 -18 48 -14 18 6 19 8 4 22 -14 15 -14 17 2 26 10 6 34 10 53
9 20 0 50 5 66 13 20 9 53 12 100 9 39 -3 97 -6 130 -8z m-815 -58 c0 -13 -23
-5 -28 10 -2 7 2 10 12 6 9 -3 16 -11 16 -16z m260 -55 c0 -19 -3 -24 -10 -17
-6 6 -8 18 -4 27 9 24 14 21 14 -10z m693 20 c-7 -2 -19 -2 -25 0 -7 3 -2 5
12 5 14 0 19 -2 13 -5z m384 -175 c-3 -8 -6 -5 -6 6 -1 11 2 17 5 13 3 -3 4
-12 1 -19z m368 -97 c-3 -6 -11 -11 -17 -11 -6 0 -6 6 2 15 14 17 26 13 15 -4z
m-895 -391 c0 -5 -4 -10 -10 -10 -5 0 -10 5 -10 10 0 6 5 10 10 10 6 0 10 -4
10 -10z m-960 -25 c0 -8 -4 -15 -10 -15 -5 0 -10 7 -10 15 0 8 5 15 10 15 6 0
10 -7 10 -15z m2143 -113 c20 -11 67 -28 103 -38 73 -21 80 -32 70 -111 -13
-103 -16 -127 -21 -131 -8 -8 -46 31 -56 56 -9 22 -33 28 -57 13 -10 -6 5 -25
57 -72 60 -53 71 -68 71 -95 0 -59 -20 -51 -110 42 -88 91 -147 175 -135 194
3 5 32 10 63 11 31 0 77 4 102 8 l45 8 -28 11 c-16 7 -32 12 -37 12 -23 0
-117 50 -139 73 -18 20 -22 32 -17 53 l7 27 22 -21 c12 -11 39 -29 60 -40z
m-1943 8 c0 -11 -4 -20 -10 -20 -5 0 -10 2 -10 4 0 2 -3 11 -6 20 -4 11 -1 16
10 16 9 0 16 -8 16 -20z m1658 -125 c-3 -3 -9 2 -12 12 -6 14 -5 15 5 6 7 -7
10 -15 7 -18z m-678 10 c0 -2 -9 -9 -20 -15 -16 -9 -20 -8 -20 5 0 8 9 15 20
15 11 0 20 -2 20 -5z m-1579 -82 c-5 -10 -19 -28 -30 -40 -12 -12 -21 -27 -21
-33 0 -14 -28 -65 -68 -122 -33 -49 -40 -70 -20 -65 12 2 12 -88 0 -108 -3 -5
-9 -44 -12 -85 -5 -72 -6 -75 -30 -75 -14 0 -26 -6 -28 -15 -2 -11 8 -15 40
-15 l43 0 0 -45 0 -45 -55 -8 c-30 -4 -65 -5 -77 -2 -34 8 -30 57 14 145 48
97 49 100 19 68 -14 -16 -28 -28 -31 -28 -14 0 -2 41 26 85 22 34 27 50 19 55
-9 6 -8 15 3 36 38 70 57 118 57 147 0 25 11 42 47 77 43 41 102 90 110 90 2
0 -1 -8 -6 -17z m1026 -25 c-3 -8 -6 -5 -6 6 -1 11 2 17 5 13 3 -3 4 -12 1
-19z m1487 -85 c24 -38 74 -97 110 -133 65 -64 78 -88 54 -107 -14 -11 -247
-38 -255 -30 -2 3 1 23 7 46 l11 41 59 0 c33 0 60 4 60 10 0 5 -15 31 -34 57
-49 70 -66 108 -66 148 0 19 2 35 4 35 3 0 25 -30 50 -67z m151 -323 c3 -5 3
-25 -1 -44 l-6 -35 -69 -7 c-38 -4 -71 -9 -73 -13 -2 -3 7 -19 21 -35 l24 -29
15 22 c8 11 24 21 34 21 18 0 19 -7 14 -102 -7 -148 -13 -172 -49 -179 -17 -4
-48 -7 -70 -8 -38 -1 -44 3 -89 57 -61 72 -70 92 -62 136 9 46 25 45 55 -3 45
-73 78 -101 121 -101 21 0 42 5 45 10 3 6 -28 55 -69 110 -86 114 -112 158
-99 171 7 7 151 30 240 38 6 0 15 -3 18 -9z m-2780 -312 c-4 -24 -12 -51 -17
-61 -11 -21 -27 -101 -35 -169 -6 -55 -24 -63 -43 -19 -12 30 -9 116 5 159 6
19 4 22 -18 22 -29 0 -43 14 -52 53 -13 50 -3 57 86 57 l81 0 -7 -42z m31
-142 c-4 -38 -11 -75 -17 -82 -6 -7 -9 -30 -6 -51 l4 -38 1 41 c2 42 32 87 32
48 0 -35 21 -94 33 -94 7 0 23 -28 37 -62 18 -47 25 -81 25 -139 0 -89 8 -106
25 -55 14 43 24 45 47 9 10 -16 20 -30 23 -33 18 -17 40 -63 40 -85 0 -28 23
-79 48 -108 14 -16 14 -19 2 -28 -8 -5 -24 -8 -35 -7 -24 3 -45 -9 -45 -26 0
-9 16 -10 72 -2 70 9 72 9 95 -18 41 -48 32 -63 -45 -76 -37 -6 -95 -10 -127
-8 -55 3 -61 6 -73 31 -12 26 -12 36 7 86 26 71 39 167 19 137 -7 -10 -21 -26
-30 -35 -10 -8 -18 -21 -18 -28 0 -27 -38 -13 -49 18 -16 47 -14 63 14 89 34
32 32 40 -15 40 -42 0 -66 23 -70 65 -4 37 0 42 28 37 27 -4 27 -3 24 47 -4
48 -5 50 -34 49 -16 -1 -32 -7 -35 -14 -3 -8 -15 -1 -34 20 -34 39 -36 70 -15
179 8 40 17 90 21 112 10 60 23 79 42 63 12 -10 14 -26 9 -82z m2474 52 c30
-13 87 -38 125 -58 l70 -35 -3 -45 c-2 -25 -12 -70 -22 -100 -10 -30 -22 -71
-26 -90 l-6 -34 -29 32 c-16 18 -29 42 -29 53 0 18 -4 20 -32 14 -18 -4 -34
-8 -35 -9 -2 -2 27 -34 63 -72 62 -65 65 -71 61 -108 -9 -66 -21 -66 -84 5
-32 35 -88 96 -126 136 -43 44 -67 78 -65 89 2 14 25 21 108 35 58 10 117 18
132 19 15 0 29 4 32 8 5 8 -158 82 -180 82 -5 0 -18 6 -28 13 -14 10 -16 21
-11 50 4 20 12 37 18 37 7 0 36 -10 67 -22z m-27 -442 c70 -74 127 -141 127
-148 0 -33 -27 -47 -115 -62 -49 -9 -124 -22 -165 -31 -41 -8 -78 -11 -83 -6
-14 14 20 80 45 90 13 4 52 14 88 21 36 7 69 16 73 20 5 4 -24 39 -63 79 -66
66 -71 74 -65 104 10 52 16 67 24 67 4 0 65 -60 134 -134z m581 96 c2 -4 -4
-13 -15 -20 -21 -13 -22 -12 -13 12 7 17 20 21 28 8z m26 -23 c0 -11 -4 -18
-10 -14 -5 3 -7 12 -3 20 7 21 13 19 13 -6z m-2930 -364 c0 -5 -5 -3 -10 5 -5
8 -10 20 -10 25 0 6 5 3 10 -5 5 -8 10 -19 10 -25z m2404 3 c-17 -58 -25 -68
-51 -73 -15 -3 -47 -10 -71 -15 -23 -6 -52 -10 -63 -10 -20 0 -20 0 1 -30 25
-35 40 -38 58 -10 14 23 62 28 62 6 0 -7 -7 -33 -15 -57 -9 -24 -13 -49 -11
-55 6 -15 -40 -145 -57 -160 -7 -6 -43 -17 -82 -24 l-69 -13 -59 64 -59 64 6
54 c4 30 10 59 15 65 5 6 11 18 14 26 2 8 3 3 1 -12 -3 -28 30 -81 84 -131 27
-26 34 -28 75 -22 89 14 88 18 -28 140 -97 102 -118 136 -96 149 5 3 65 17
132 30 223 44 223 44 213 14z m-2077 -179 c7 -7 8 -22 2 -45 -5 -19 -13 -49
-17 -66 -23 -89 -73 -218 -85 -218 -11 0 -47 62 -47 83 0 10 9 35 19 55 10 20
21 48 22 61 4 24 2 25 -52 22 -47 -2 -60 1 -77 19 -19 21 -37 68 -29 76 2 2
54 6 116 8 63 3 116 8 119 11 8 8 17 6 29 -6z m86 -108 c23 -39 22 -48 -14
-153 -16 -49 -28 -92 -26 -94 2 -3 17 0 32 6 23 9 25 13 15 25 -10 12 -10 21
0 45 16 40 30 37 60 -10 18 -31 30 -40 52 -40 19 0 34 -10 52 -33 46 -61 48
-77 15 -168 -16 -46 -35 -89 -42 -95 -14 -14 -128 -26 -143 -16 -18 12 -44 56
-44 74 0 15 9 18 63 18 l64 0 18 55 c11 30 16 57 13 60 -3 4 -32 2 -64 -4 -32
-6 -84 -11 -116 -11 -54 0 -58 2 -74 31 -15 30 -15 34 9 88 14 31 40 102 58
157 19 61 37 100 44 98 6 -3 19 -18 28 -33z m1562 -81 c-4 -12 -9 -19 -12 -17
-3 3 -2 15 2 27 4 12 9 19 12 17 3 -3 2 -15 -2 -27z m27 -64 c18 -8 73 -27
121 -42 51 -15 91 -33 95 -42 6 -17 -33 -138 -52 -162 -7 -8 -20 -36 -30 -62
-10 -27 -21 -48 -25 -48 -15 0 -33 48 -26 69 4 14 2 21 -7 21 -18 -1 -76 -28
-60 -29 6 -1 12 -6 12 -11 0 -6 8 -20 19 -31 40 -43 55 -85 45 -125 -5 -21
-14 -39 -20 -41 -7 -2 -25 18 -41 44 -17 27 -58 81 -92 121 -52 60 -62 77 -57
98 4 13 11 22 17 19 11 -8 249 57 249 67 0 4 -24 14 -52 23 -29 8 -79 23 -111
32 l-59 17 6 40 c10 63 15 65 68 42z m-86 -148 c-8 -24 -15 -34 -16 -22 0 20
22 75 28 69 2 -2 -3 -23 -12 -47z m-1173 -206 c31 -46 37 -63 32 -89 -4 -24 1
-42 20 -74 15 -22 24 -47 21 -55 -7 -18 -51 -18 -69 1 -13 12 -15 12 -20 -3
-3 -9 -8 -25 -12 -34 -6 -15 -2 -18 25 -18 18 0 62 5 97 12 l64 12 24 -30 c34
-41 32 -62 -7 -68 -98 -14 -209 -26 -249 -26 -39 0 -49 4 -64 26 -16 26 -16
29 0 63 26 54 86 203 83 206 -2 2 -38 -26 -82 -60 -45 -37 -84 -61 -92 -58
-14 5 -44 53 -44 71 0 5 21 23 48 40 26 17 74 56 107 86 33 31 65 55 70 55 6
1 27 -25 48 -57z m1153 -35 c11 -11 29 -33 42 -47 12 -14 43 -55 68 -92 58
-84 55 -98 -29 -127 -130 -46 -203 -77 -221 -95 -19 -19 -19 -18 -12 35 7 58
31 89 70 89 12 0 26 4 32 9 5 5 26 14 46 21 21 6 40 15 43 20 3 5 -20 38 -51
75 -52 61 -56 69 -50 103 4 20 12 50 19 67 l11 29 7 -32 c4 -18 15 -43 25 -55z
m1320 -109 c-3 -17 -15 -40 -26 -50 -30 -28 -24 -38 20 -38 38 0 52 -12 29
-25 -6 -4 -8 -14 -5 -22 7 -16 -18 -11 -66 13 -15 8 -33 14 -39 14 -17 0 -59
-40 -59 -56 0 -23 -20 -26 -45 -6 l-24 19 32 23 31 24 -29 9 c-37 12 -65 35
-65 55 0 12 12 13 71 8 l70 -7 34 35 c19 20 43 36 56 36 19 0 21 -4 15 -32z
m-1417 -74 c-18 -22 -23 -9 -8 26 12 27 14 28 17 10 2 -12 -2 -28 -9 -36z
m196 -176 c-10 -47 -18 -54 -91 -80 -35 -12 -64 -28 -64 -34 0 -7 8 -22 19
-35 l18 -23 7 22 c7 22 43 48 53 38 3 -3 0 -20 -7 -38 -6 -18 -18 -56 -25 -84
-8 -28 -25 -75 -38 -105 -20 -45 -32 -59 -74 -82 l-51 -27 -21 33 c-11 18 -30
44 -41 57 -24 27 -23 55 4 140 l14 45 1 -39 c1 -27 11 -52 37 -87 20 -27 37
-49 39 -49 11 0 75 32 80 40 10 17 -82 162 -123 195 -21 17 -11 60 13 60 18 0
62 15 185 65 66 27 73 26 65 -12z m-992 -28 c-2 -13 -79 -236 -98 -282 -10
-24 -17 -23 -49 11 l-29 30 27 71 c14 39 26 73 26 76 0 3 -33 5 -72 4 -40 -1
-78 -1 -85 -1 -15 1 -56 68 -49 80 3 5 41 9 83 10 43 1 94 6 113 11 56 14 135
8 133 -10z m72 -87 c14 -15 25 -38 25 -51 0 -22 -22 -103 -41 -150 -12 -32 -6
-39 30 -34 27 4 29 6 19 28 -8 16 -8 31 -1 46 9 21 11 20 47 -29 22 -31 46
-53 59 -55 35 -5 75 -90 79 -168 l3 -65 -75 3 c-63 3 -79 8 -99 28 -14 13 -22
27 -18 31 4 4 35 9 68 11 l60 4 -3 42 -3 41 -121 0 c-155 0 -176 14 -140 97 8
18 24 69 36 113 22 83 40 135 46 135 2 0 15 -12 29 -27z m581 -291 c-11 -10
-14 3 -8 33 l7 30 3 -28 c2 -16 1 -31 -2 -35z m77 -71 c42 -9 57 -17 57 -29 1
-27 -104 -241 -118 -241 -8 -1 -10 7 -6 24 7 27 -7 33 -25 11 -8 -10 -8 -27 0
-65 8 -40 8 -58 -3 -81 -21 -49 -34 -34 -40 50 -2 19 -7 33 -13 30 -6 -3 -10
-57 -10 -130 0 -83 -4 -132 -13 -147 -19 -34 -33 -28 -20 8 6 17 8 56 5 87 -7
68 7 195 22 200 6 2 11 14 11 26 0 24 87 113 133 136 32 16 31 34 -4 38 -84 9
-89 12 -89 43 0 44 17 71 38 61 9 -5 43 -14 75 -21z m-127 -152 c-14 -33 -14
-33 -15 -7 -1 15 4 39 11 55 11 26 12 26 15 7 2 -12 -3 -37 -11 -55z m-226
-39 c17 -33 30 -69 30 -80 0 -11 18 -54 40 -96 22 -43 38 -79 35 -82 -8 -9
-84 77 -89 100 -3 13 -8 44 -11 70 -3 26 -10 50 -14 53 -5 2 -23 0 -40 -6 -28
-10 -35 -9 -57 12 -13 12 -24 27 -24 33 1 13 82 65 93 59 4 -3 21 -31 37 -63z
m115 -317 c6 -11 16 -18 23 -15 18 6 15 -45 -4 -52 -9 -3 -19 -6 -24 -6 -6 0
-30 74 -30 95 0 13 25 -2 35 -22z"/>
<path d="M3888 5263 c23 -2 61 -2 85 0 23 2 4 4 -43 4 -47 0 -66 -2 -42 -4z"/>
<path d="M4152 5259 c5 -16 78 -25 78 -10 0 6 -8 11 -17 11 -10 0 -29 3 -42 7
-18 4 -23 2 -19 -8z"/>
<path d="M4420 5058 c0 -5 14 -8 30 -8 17 0 30 4 30 9 0 4 -13 8 -30 7 -16 -1
-30 -4 -30 -8z"/>
<path d="M4620 4811 c0 -6 5 -13 11 -17 6 -3 9 -15 6 -25 -3 -10 1 -23 9 -30
11 -9 14 -6 14 15 0 15 -5 36 -10 47 -11 20 -30 26 -30 10z"/>
<path d="M3565 4779 c4 -5 -1 -19 -11 -30 -13 -15 -15 -22 -6 -31 8 -8 16 -5
31 13 15 19 21 21 24 9 3 -8 8 -22 10 -30 3 -8 6 2 6 22 1 27 -4 40 -18 48
-25 13 -44 13 -36 -1z"/>
<path d="M4585 4680 c3 -5 8 -10 11 -10 2 0 4 5 4 10 0 6 -5 10 -11 10 -5 0
-7 -4 -4 -10z"/>
<path d="M4582 4641 c2 -7 7 -12 11 -12 12 1 9 15 -3 20 -7 2 -11 -2 -8 -8z"/>
<path d="M4430 4580 c0 -10 -9 -24 -21 -31 -24 -13 -12 -33 14 -23 11 4 17 18
17 40 0 19 -2 34 -5 34 -3 0 -5 -9 -5 -20z"/>
<path d="M3395 4560 c3 -5 10 -10 16 -10 5 0 9 5 9 10 0 6 -7 10 -16 10 -8 0
-12 -4 -9 -10z"/>
<path d="M3610 4490 c0 -5 4 -10 9 -10 6 0 13 5 16 10 3 6 -1 10 -9 10 -9 0
-16 -4 -16 -10z"/>
<path d="M1868 7301 c-5 -18 -7 -144 -6 -280 l1 -246 9 190 c9 219 7 390 -4
336z"/>
<path d="M4788 6760 c-9 -6 -52 -12 -95 -15 -286 -17 -282 -16 -361 -64 -54
-32 -74 -50 -77 -70 -3 -14 -10 -39 -14 -56 -5 -16 -12 -40 -16 -52 -4 -16 -2
-23 7 -23 35 0 71 -136 48 -180 -12 -23 22 -71 67 -95 21 -11 45 -28 55 -38
22 -25 171 -42 358 -42 153 0 183 5 174 29 -5 12 -21 14 -87 10 -99 -6 -178 2
-203 21 -18 14 -18 15 4 21 13 4 21 13 20 23 -4 21 51 27 95 11 48 -18 143
-38 169 -35 13 1 42 3 66 4 34 1 42 4 42 20 0 11 6 22 13 24 8 4 8 6 -3 6 -8
1 -41 29 -75 64 -69 72 -124 106 -210 131 -147 41 -171 56 -120 76 32 12 263
30 283 22 11 -4 13 -1 7 8 -6 10 -4 12 9 7 10 -4 28 -7 41 -7 14 0 40 -13 58
-30 50 -43 61 -40 53 18 -7 54 -29 88 -77 119 -19 12 -57 40 -85 63 -40 31
-60 40 -90 40 -22 0 -47 -5 -56 -10z m40 -362 c27 -12 55 -31 61 -40 9 -15 1
-13 -46 8 -32 15 -71 30 -88 34 -16 5 -43 13 -60 19 -26 10 -23 10 26 7 31 -2
79 -15 107 -28z m-288 -88 c0 -5 -9 -10 -20 -10 -11 0 -20 5 -20 10 0 6 9 10
20 10 11 0 20 -4 20 -10z"/>
<path d="M1861 6744 c0 -11 3 -14 6 -6 3 7 2 16 -1 19 -3 4 -6 -2 -5 -13z"/>
<path d="M3555 6678 c-38 -9 -89 -16 -245 -33 -36 -4 -70 -12 -77 -17 -7 -6
-29 -7 -50 -4 -37 7 -40 5 -121 -77 -73 -73 -81 -85 -68 -97 21 -17 58 -1 109
45 43 40 33 38 186 25 87 -8 119 -15 138 -30 16 -13 34 -18 48 -14 21 5 65
-20 65 -38 0 -3 -26 -12 -57 -18 -32 -7 -64 -14 -72 -16 -25 -8 -1 -18 36 -16
34 3 113 -11 157 -27 11 -4 -16 -8 -59 -9 -98 -2 -165 -21 -237 -69 -31 -21
-86 -56 -121 -78 -36 -22 -63 -43 -61 -47 17 -27 174 14 202 53 17 24 33 24
55 -1 9 -11 12 -20 6 -20 -8 0 -7 -5 1 -15 16 -19 30 -19 30 -1 0 15 30 26 70
26 19 0 22 -2 10 -10 -8 -5 -11 -12 -7 -16 12 -12 40 -14 53 -3 7 5 23 7 37 4
14 -4 28 -2 31 4 10 16 36 14 36 -3 0 -13 -201 -95 -238 -97 -9 0 -35 -9 -57
-18 l-40 -18 55 4 c135 11 292 57 362 109 48 34 82 91 72 119 -4 8 -1 15 5 15
6 0 11 9 11 20 0 10 7 23 17 28 16 10 16 21 -3 105 -5 21 -3 27 10 27 9 0 19
7 22 15 4 8 12 15 19 15 21 0 25 91 6 113 -27 32 -91 56 -175 67 -92 11 -106
11 -161 -2z m61 -383 c10 -8 34 -15 52 -15 17 0 32 -3 32 -7 0 -11 -139 -52
-145 -43 -2 4 -2 23 2 43 6 41 25 48 59 22z m44 -85 c0 -5 -6 -10 -14 -10 -8
0 -23 -3 -33 -6 -16 -5 -16 -4 1 10 22 18 46 21 46 6z m-97 -17 c-7 -2 -19 -2
-25 0 -7 3 -2 5 12 5 14 0 19 -2 13 -5z"/>
<path d="M1846 6303 c-3 -142 -8 -310 -12 -373 -5 -87 -3 -112 5 -104 12 11
30 734 19 734 -3 0 -8 -116 -12 -257z"/>
<path d="M3294 6356 c-95 -48 -184 -126 -144 -126 5 0 27 16 49 35 48 44 149
105 173 105 10 0 18 5 18 10 0 17 -25 11 -96 -24z"/>
<path d="M5402 6195 c-23 -29 -25 -45 -7 -48 12 -2 38 49 33 65 -2 6 -14 -2
-26 -17z"/>
<path d="M3450 6170 c0 -5 5 -10 10 -10 6 0 10 5 10 10 0 6 -4 10 -10 10 -5 0
-10 -4 -10 -10z"/>
<path d="M5382 6030 c0 -19 2 -27 5 -17 2 9 2 25 0 35 -3 9 -5 1 -5 -18z"/>
<path d="M2447 5966 c-7 -17 18 -92 30 -89 4 2 8 13 9 26 1 12 6 32 12 44 7
12 12 24 12 27 0 13 -58 5 -63 -8z"/>
<path d="M1833 5640 c0 -110 1 -116 6 -45 3 44 3 100 0 125 -4 26 -6 -8 -6
-80z"/>
<path d="M5351 5734 c0 -11 3 -14 6 -6 3 7 2 16 -1 19 -3 4 -6 -2 -5 -13z"/>
<path d="M1832 5470 c0 -14 2 -19 5 -12 2 6 2 18 0 25 -3 6 -5 1 -5 -13z"/>
<path d="M2874 5344 c3 -9 6 -22 6 -30 0 -9 11 -14 35 -14 28 0 35 4 35 20 0
16 -5 19 -24 14 -16 -4 -25 -1 -29 10 -4 9 -11 16 -18 16 -6 0 -8 -7 -5 -16z"/>
<path d="M1819 5348 c0 -2 -2 -111 -4 -243 -3 -132 -7 -256 -10 -275 -4 -32
-4 -33 6 -10 12 27 26 530 15 530 -3 0 -6 -1 -7 -2z"/>
<path d="M1530 5315 c-7 -9 -10 -18 -6 -22 3 -3 6 -1 6 5 0 6 8 12 18 14 11 2
13 6 6 11 -7 4 -17 0 -24 -8z"/>
<path d="M480 5300 c-18 -6 -7 -8 40 -8 45 -1 59 2 45 8 -25 11 -52 11 -85 0z"/>
<path d="M684 5299 c-3 -5 6 -9 20 -9 31 0 34 6 6 13 -11 3 -23 1 -26 -4z"/>
<path d="M1170 5300 c0 -13 20 -13 40 0 12 8 9 10 -12 10 -16 0 -28 -4 -28
-10z"/>
<path d="M1355 5300 l-30 -8 33 -1 c17 0 32 4 32 9 0 6 -1 9 -2 9 -2 -1 -16
-5 -33 -9z"/>
<path d="M1103 5293 c9 -2 23 -2 30 0 6 3 -1 5 -18 5 -16 0 -22 -2 -12 -5z"/>
<path d="M1718 5293 c7 -3 16 -2 19 1 4 3 -2 6 -13 5 -11 0 -14 -3 -6 -6z"/>
<path d="M2990 5187 c0 -20 5 -37 10 -37 19 0 22 29 6 52 -16 22 -16 22 -16
-15z"/>
<path d="M2918 5193 c-22 -24 -23 -33 -4 -33 25 0 28 -19 6 -37 -24 -21 -26
-46 -5 -63 8 -7 15 -24 15 -39 1 -36 39 -64 64 -46 14 11 15 17 6 34 -6 12 -8
26 -4 32 7 12 -14 69 -26 69 -8 0 -20 29 -29 74 -6 28 -6 28 -23 9z m22 -109
c0 -8 -4 -12 -10 -9 -5 3 -10 10 -10 16 0 5 5 9 10 9 6 0 10 -7 10 -16z"/>
<path d="M3018 5074 c-8 -7 2 -44 12 -44 4 0 11 8 15 18 6 16 7 16 16 -1 6 -9
14 -15 20 -12 17 11 9 23 -22 34 -37 13 -34 12 -41 5z"/>
<path d="M3100 5040 c-17 -11 -8 -23 14 -18 9 2 12 8 8 15 -5 8 -13 9 -22 3z"/>
<path d="M3170 4959 c0 -11 5 -17 10 -14 6 3 10 13 10 21 0 8 -4 14 -10 14 -5
0 -10 -9 -10 -21z"/>
<path d="M3189 4914 c-9 -11 -10 -17 -1 -22 15 -10 34 -63 28 -79 -7 -16 41
-40 72 -35 12 2 22 10 22 17 0 8 -6 12 -14 9 -7 -3 -22 3 -32 13 -17 17 -17
18 15 23 30 5 30 6 12 17 -12 8 -22 9 -26 3 -11 -18 -37 2 -33 25 4 18 1 21
-15 17 -16 -4 -19 -1 -14 11 8 21 3 22 -14 1z"/>
<path d="M3070 4770 c0 -5 7 -10 16 -10 8 0 12 5 9 10 -3 6 -10 10 -16 10 -5
0 -9 -4 -9 -10z"/>
<path d="M1797 4455 c-5 -176 -10 -354 -13 -395 -14 -268 -14 -284 -5 -269 12
19 34 655 29 849 -2 97 -5 45 -11 -185z"/>
<path d="M4512 3913 c5 -24 25 -27 31 -3 4 15 0 20 -15 20 -13 0 -18 -6 -16
-17z"/>
<path d="M4568 3923 c7 -3 16 -2 19 1 4 3 -2 6 -13 5 -11 0 -14 -3 -6 -6z"/>
<path d="M660 3880 c0 -5 5 -10 10 -10 6 0 10 5 10 10 0 6 -4 10 -10 10 -5 0
-10 -4 -10 -10z"/>
<path d="M598 3863 c6 -2 18 -2 25 0 6 3 1 5 -13 5 -14 0 -19 -2 -12 -5z"/>
<path d="M290 3750 c0 -5 9 -10 19 -10 11 0 23 5 26 10 4 6 -5 10 -19 10 -14
0 -26 -4 -26 -10z"/>
<path d="M4837 3073 c-4 -3 -7 -20 -7 -36 0 -25 2 -28 15 -17 8 7 15 23 15 36
0 23 -10 31 -23 17z"/>
<path d="M4860 3010 c0 -5 -9 -10 -20 -10 -15 0 -20 -7 -20 -25 0 -14 5 -24
12 -22 7 1 15 -11 19 -28 4 -16 7 -28 8 -25 4 11 8 120 4 120 -1 0 -3 -4 -3
-10z"/>
<path d="M4835 2869 c-10 -15 3 -25 16 -12 7 7 7 13 1 17 -6 3 -14 1 -17 -5z"/>
<path d="M4136 2622 c-4 -6 11 -13 36 -17 59 -10 98 -32 98 -54 0 -48 11 -52
41 -15 35 45 36 49 3 70 -30 20 -168 32 -178 16z"/>
<path d="M4216 2286 c3 -8 1 -24 -6 -35 -6 -12 -7 -21 -2 -21 6 0 12 10 16 23
8 32 7 47 -4 47 -5 0 -7 -6 -4 -14z"/>
<path d="M8955 1513 c14 -14 105 -25 105 -13 0 6 -8 10 -17 10 -10 0 -36 3
-58 6 -27 5 -37 3 -30 -3z"/>
<path d="M9150 1484 c0 -5 27 -20 60 -32 77 -30 165 -109 197 -177 23 -51 31
-133 13 -151 -5 -5 -21 -63 -35 -129 -14 -66 -34 -154 -46 -195 -11 -41 -24
-102 -30 -135 -5 -33 -14 -68 -19 -77 -6 -10 -10 -31 -10 -47 0 -33 -55 -87
-119 -116 -20 -10 -49 -23 -65 -31 -16 -8 -44 -14 -62 -14 -18 0 -34 -5 -36
-12 -4 -10 -13 -10 -45 0 -22 7 -51 12 -65 12 -13 0 -33 6 -43 14 -15 11 -50
13 -162 9 -79 -2 -155 -8 -170 -12 -16 -5 52 -6 150 -3 172 5 177 4 177 -15 0
-27 35 -70 72 -89 45 -23 162 -30 190 -12 16 11 61 17 143 21 66 3 137 10 158
16 l37 12 0 563 0 563 -42 18 c-46 19 -248 34 -248 19z"/>
<path d="M8443 383 c9 -2 23 -2 30 0 6 3 -1 5 -18 5 -16 0 -22 -2 -12 -5z"/>
<path d="M8265 330 c-16 -7 -17 -9 -3 -9 9 -1 20 4 23 9 7 11 7 11 -20 0z"/>
<path d="M7728 313 c-47 -5 -49 -19 -5 -27 50 -9 285 -10 350 -1 59 8 67 18
19 22 -62 6 -330 10 -364 6z"/>
<path d="M8170 310 c-22 -7 -21 -8 12 -9 20 -1 40 4 43 9 7 12 -19 12 -55 0z"/>
<path d="M4404 216 c-8 -32 -2 -58 14 -64 8 -2 12 10 12 42 0 49 -16 62 -26
22z"/>
<path d="M8955 130 c-7 -12 -3 -13 80 -30 87 -18 110 -26 108 -39 -2 -6 8 -11
21 -11 12 0 36 -4 52 -9 16 -5 73 -12 127 -15 l97 -5 0 39 c0 38 -1 40 -32 40
-18 1 -58 9 -88 20 -74 26 -100 26 -100 -1 0 -18 -2 -19 -21 -6 -15 11 -44 14
-114 11 -54 -2 -97 1 -100 6 -8 13 -22 13 -30 0z m232 -66 c-3 -3 -12 -4 -19
-1 -8 3 -5 6 6 6 11 1 17 -2 13 -5z"/>
</g>
</svg>
